:FULLY-SPECIFIED
:FORCE-ALL-JOINTS-BE-3DOF
:DEGREES
227
root 8.67409 16.1442 -5.2218 10.4147 -3.26179 -7.34579
lfemur -50.2169 6.00381 -13.8295
ltibia 31.5181 0 0
lfoot -1.83458 10.5809 0
ltoes -12.8944 0 0
rfemur 20.1092 6.85958 31.0131
rtibia -3.94721 0 0
rfoot -9.24404 7.85201 0
rtoes -10.056 0 0
lowerback -9.25907 2.63299 3.72425
upperback -1.53205 3.01439 3.57376
thorax 3.58926 1.51849 1.98487
lowerneck -16.6191 -6.04436 -13.7659
upperneck 15.4607 -7.83376 15.1324
head 8.73898 -3.10142 6.47789
lclavicle -1.00857e-14 5.31479e-16 0
lhumerus -51.8267 -7.98289 93.6182
lradius 23.2282 0 0
lwrist 3.35916 0 0
lhand -8.83653 -24.6118 0
lfingers 7.12502 0 0
lthumb 17.1032 4.64801 0
rclavicle -1.00857e-14 5.31479e-16 0
rhumerus -41.2234 12.9284 -87.0842
rradius 51.9634 0 0
rwrist -25.1754 0 0
rhand -31.0457 -34.2247 0
rfingers 7.12502 0 0
rthumb -4.32733 -64.1601 0
228
root 8.70068 16.129 -5.05311 10.5268 -3.4579 -7.33141
lfemur -50.3848 6.62121 -14.2206
ltibia 32.452 0 0
lfoot -1.0396 10.2286 0
ltoes -12.5391 0 0
rfemur 20.2932 6.85004 30.8173
rtibia -3.43822 0 0
rfoot -8.92104 7.87447 0
rtoes -10.334 0 0
lowerback -9.32406 2.63298 3.67199
upperback -1.56706 3.01567 3.53525
thorax 3.58875 1.51887 1.97695
lowerneck -16.7251 -6.02521 -13.7134
upperneck 15.5213 -7.8128 15.129
head 8.77295 -3.08426 6.47158
lclavicle -7.70444e-15 1.11922e-15 0
lhumerus -51.7332 -7.79837 93.3506
lradius 23.042 0 0
lwrist 2.96226 0 0
lhand -8.63655 -24.5675 0
lfingers 7.12502 0 0
lthumb 17.2958 4.67695 0
rclavicle -7.70444e-15 1.11922e-15 0
rhumerus -41.4882 12.8814 -87.3012
rradius 51.7107 0 0
rwrist -24.9887 0 0
rhand -30.9855 -34.4755 0
rfingers 7.12502 0 0
rthumb -4.26918 -64.4122 0
229
root 8.72785 16.1167 -4.88553 10.6218 -3.65031 -7.29091
lfemur -50.4895 7.18252 -14.6144
ltibia 33.3059 0 0
lfoot -0.358398 9.89977 0
ltoes -12.1683 0 0
rfemur 20.3946 6.81418 30.5883
rtibia -2.79634 0 0
rfoot -8.54873 7.86558 0
rtoes -10.6168 0 0
lowerback -9.37042 2.63016 3.60351
upperback -1.60144 3.01521 3.49247
thorax 3.57804 1.51842 1.97264
lowerneck -16.834 -6.00562 -13.6645
upperneck 15.5865 -7.78954 15.1212
head 8.8087 -3.06658 6.46488
lclavicle -5.60661e-15 1.57754e-15 0
lhumerus -51.6113 -7.63013 93.095
lradius 22.8658 0 0
lwrist 2.57938 0 0
lhand -8.45486 -24.5205 0
lfingers 7.12502 0 0
lthumb 17.4708 4.70995 0
rclavicle -5.60661e-15 1.57754e-15 0
rhumerus -41.7439 12.8263 -87.4969
rradius 51.4382 0 0
rwrist -24.8089 0 0
rhand -30.937 -34.6807 0
rfingers 7.12502 0 0
rthumb -4.2223 -64.6184 0
230
root 8.75559 16.1078 -4.71929 10.6977 -3.8387 -7.22214
lfemur -50.5247 7.67738 -15.0078
ltibia 34.0614 0 0
lfoot 0.193123 9.59925 0
ltoes -11.7839 0 0
rfemur 20.4082 6.74944 30.3238
rtibia -2.01423 0 0
rfoot -8.12142 7.82258 0
rtoes -10.9026 0 0
lowerback -9.39636 2.62438 3.51771
upperback -1.6352 3.01295 3.4452
thorax 3.55609 1.51715 1.97225
lowerneck -16.9446 -5.98536 -13.6199
upperneck 15.6568 -7.76352 15.1086
head 8.84613 -3.0483 6.45783
lclavicle -3.84489e-15 1.88761e-15 0
lhumerus -51.4597 -7.48076 92.8539
lradius 22.7003 0 0
lwrist 2.21264 0 0
lhand -8.29373 -24.4711 0
lfingers 7.12502 0 0
lthumb 17.6259 4.7471 0
rclavicle -3.84489e-15 1.88761e-15 0
rhumerus -41.9891 12.7633 -87.6689
rradius 51.1462 0 0
rwrist -24.6383 0 0
rhand -30.9014 -34.8346 0
rfingers 7.12502 0 0
rthumb -4.18793 -64.7731 0
231
root 8.78389 16.1027 -4.55464 10.7523 -4.02271 -7.12296
lfemur -50.4842 8.09538 -15.3978
ltibia 34.7001 0 0
lfoot 0.599062 9.3318 0
ltoes -11.3874 0 0
rfemur 20.3287 6.65324 30.0217
rtibia -1.08456 0 0
rfoot -7.6334 7.74272 0
rtoes -11.1892 0 0
lowerback -9.40009 2.61547 3.41352
upperback -1.66834 3.00886 3.39328
thorax 3.52186 1.51502 1.9761
lowerneck -17.0563 -5.9642 -13.5803
upperneck 15.7325 -7.7343 15.0906
head 8.88514 -3.02934 6.45047
lclavicle -2.47198e-15 2.03065e-15 0
lhumerus -51.2767 -7.35287 92.6302
lradius 22.5466 0 0
lwrist 1.8642 0 0
lhand -8.15544 -24.4192 0
lfingers 7.12502 0 0
lthumb 17.7591 4.78848 0
rclavicle -2.47198e-15 2.03065e-15 0
rhumerus -42.2224 12.6927 -87.8151
rradius 50.8349 0 0
rwrist -24.4793 0 0
rhand -30.88 -34.9314 0
rfingers 7.12502 0 0
rthumb -4.16729 -64.8704 0
232
root 8.81275 16.1016 -4.39182 10.7835 -4.202 -6.99124
lfemur -50.3618 8.42613 -15.7813
ltibia 35.2038 0 0
lfoot 0.843519 9.10221 0
ltoes -10.9808 0 0
rfemur 20.1509 6.52302 29.6798
rtibia -3.18055e-15 0 0
rfoot -7.07895 7.62323 0
rtoes -11.4745 0 0
lowerback -9.37984 2.60327 3.28986
upperback -1.70087 3.00287 3.33649
thorax 3.47433 1.51204 1.98449
lowerneck -17.1681 -5.9419 -13.5464
upperneck 15.8139 -7.70141 15.0668
head 8.92565 -3.00961 6.44283
lclavicle -1.54058e-15 1.98785e-15 0
lhumerus -51.0607 -7.24907 92.4267
lradius 22.4055 0 0
lwrist 1.53617 0 0
lhand -8.04229 -24.365 0
lfingers 7.12502 0 0
lthumb 17.8681 4.83417 0
rclavicle -1.54058e-15 1.98785e-15 0
rhumerus -42.4425 12.615 -87.9333
rradius 50.5045 0 0
rwrist -24.3342 0 0
rhand -30.8741 -34.9654 0
rfingers 7.12502 0 0
rthumb -4.1616 -64.9045 0
233
root 8.84283 16.1047 -4.22966 10.7927 -4.38281 -6.81656
lfemur -50.1585 8.68833 -16.1815
ltibia 35.6228 0 0
lfoot 0.93232 8.89912 0
ltoes -10.5281 0 0
rfemur 19.8633 6.35007 29.2747
rtibia 1.30827 0 0
rfoot -6.4047 7.46416 0
rtoes -11.7793 0 0
lowerback -9.33072 2.58957 3.13752
upperback -1.73505 2.99828 3.2705
thorax 3.4079 1.50989 1.99803
lowerneck -17.2874 -5.92064 -13.5185
upperneck 15.9017 -7.66707 15.0378
head 8.96953 -2.98977 6.43485
lclavicle -1.01361e-15 1.74925e-15 0
lhumerus -50.8145 -7.15963 92.2362
lradius 22.2738 0 0
lwrist 1.21755 0 0
lhand -7.95011 -24.3028 0
lfingers 7.12502 0 0
lthumb 17.9569 4.88955 0
rclavicle -1.01361e-15 1.74925e-15 0
rhumerus -42.6548 12.5213 -88.0249
rradius 50.1279 0 0
rwrist -24.1906 0 0
rhand -30.8882 -34.9384 0
rfingers 7.12502 0 0
rthumb -4.17526 -64.8772 0
234
root 8.87466 16.1116 -4.06692 10.7837 -4.57053 -6.59318
lfemur -49.8825 8.90939 -16.6208
ltibia 36.0196 0 0
lfoot 0.889206 8.7077 0
ltoes -9.9984 0 0
rfemur 19.4631 6.13051 28.7904
rtibia 2.88652 0 0
rfoot -5.5748 7.26885 0
rtoes -12.1224 0 0
lowerback -9.25096 2.57597 2.95041
upperback -1.77268 2.99778 3.19205
thorax 3.31934 1.50993 2.01683
lowerneck -17.4212 -5.90242 -13.4962
upperneck 15.9962 -7.63357 15.0049
head 9.01841 -2.97042 6.42641
lclavicle -7.98188e-16 1.32944e-15 0
lhumerus -50.5421 -7.07362 92.0495
lradius 22.1479 0 0
lwrist 0.896959 0 0
lhand -7.87285 -24.2279 0
lfingers 7.12502 0 0
lthumb 18.0313 4.9588 0
rclavicle -7.98188e-16 1.32944e-15 0
rhumerus -42.8654 12.4042 -88.0935
rradius 49.6832 0 0
rwrist -24.0358 0 0
rhand -30.9245 -34.859 0
rfingers 7.12502 0 0
rthumb -4.21031 -64.7969 0
235
root 8.90804 16.122 -3.90377 10.7576 -4.76356 -6.32591
lfemur -49.5383 9.09203 -17.0946
ltibia 36.3936 0 0
lfoot 0.725147 8.52752 0
ltoes -9.40114 0 0
rfemur 18.9579 5.869 28.2356
rtibia 4.70822 0 0
rfoot -4.60982 7.03949 0
rtoes -12.4993 0 0
lowerback -9.14345 2.56207 2.73217
upperback -1.81307 3.00042 3.10261
thorax 3.21115 1.51167 2.04047
lowerneck -17.5681 -5.88678 -13.4789
upperneck 16.0967 -7.60061 14.9681
head 9.0718 -2.95143 6.41751
lclavicle -8.63272e-16 7.46456e-16 0
lhumerus -50.2442 -6.9919 91.8667
lradius 22.0278 0 0
lwrist 0.575993 0 0
lhand -7.80992 -24.1419 0
lfingers 7.12502 0 0
lthumb 18.0919 5.04025 0
rclavicle -8.63272e-16 7.46456e-16 0
rhumerus -43.0739 12.2661 -88.1407
rradius 49.1783 0 0
rwrist -23.8716 0 0
rhand -30.9806 -34.731 0
rfingers 7.12502 0 0
rthumb -4.26446 -64.6677 0
236
root 8.94278 16.1356 -3.74036 10.7157 -4.9603 -6.01961
lfemur -49.1307 9.23895 -17.5984
ltibia 36.7445 0 0
lfoot 0.451117 8.35815 0
ltoes -8.74564 0 0
rfemur 18.3553 5.57021 27.619
rtibia 6.74688 0 0
rfoot -3.53034 6.77828 0
rtoes -12.9054 0 0
lowerback -9.01108 2.54746 2.48642
upperback -1.85555 3.00526 3.00362
thorax 3.08585 1.51462 2.06852
lowerneck -17.7263 -5.87325 -13.4658
upperneck 16.2028 -7.5679 14.9277
head 9.1292 -2.93269 6.40814
lclavicle -1.17783e-15 1.83281e-17 0
lhumerus -49.921 -6.91529 91.6875
lradius 21.9139 0 0
lwrist 0.256247 0 0
lhand -7.76076 -24.0464 0
lfingers 7.12502 0 0
lthumb 18.1393 5.13222 0
rclavicle -1.17783e-15 1.83281e-17 0
rhumerus -43.2795 12.1094 -88.1676
rradius 48.6212 0 0
rwrist -23.7 0 0
rhand -31.0541 -34.5587 0
rfingers 7.12502 0 0
rthumb -4.33539 -64.4937 0
237
root 8.9787 16.1521 -3.57684 10.6592 -5.15917 -5.67911
lfemur -48.6643 9.35285 -18.1276
ltibia 37.0718 0 0
lfoot 0.0780886 8.19916 0
ltoes -8.04126 0 0
rfemur 17.6629 5.23881 26.9496
rtibia 8.97597 0 0
rfoot -2.35694 6.48742 0
rtoes -13.3363 0 0
lowerback -8.85675 2.53174 2.21678
upperback -1.89943 3.01135 2.89655
thorax 2.94593 1.51828 2.10053
lowerneck -17.8946 -5.86138 -13.4562
upperneck 16.3141 -7.53513 14.8838
head 9.19013 -2.91406 6.39828
lclavicle -1.71083e-15 -8.36913e-16 0
lhumerus -49.573 -6.84463 91.512
lradius 21.8064 0 0
lwrist -0.0606828 0 0
lhand -7.72478 -23.9431 0
lfingers 7.12502 0 0
lthumb 18.174 5.23303 0
rclavicle -1.71083e-15 -8.36913e-16 0
rhumerus -43.482 11.9365 -88.1757
rradius 48.0198 0 0
rwrist -23.5228 0 0
rhand -31.1426 -34.346 0
rfingers 7.12502 0 0
rthumb -4.42082 -64.279 0
238
root 9.01559 16.1712 -3.41338 10.5896 -5.35856 -5.30923
lfemur -48.1439 9.43644 -18.6778
ltibia 37.375 0 0
lfoot -0.382967 8.05013 0
ltoes -7.29736 0 0
rfemur 16.8883 4.87946 26.2359
rtibia 11.369 0 0
rfoot -1.1102 6.16909 0
rtoes -13.7872 0 0
lowerback -8.68333 2.5145 1.92689
upperback -1.94403 3.01773 2.78286
thorax 2.7939 1.52215 2.1361
lowerneck -18.0712 -5.8507 -13.4496
upperneck 16.4299 -7.50201 14.8367
head 9.25409 -2.89541 6.38794
lclavicle -2.43124e-15 -1.80124e-15 0
lhumerus -49.2007 -6.78075 91.34
lradius 21.7055 0 0
lwrist -0.373201 0 0
lhand -7.7014 -23.8336 0
lfingers 7.12502 0 0
lthumb 18.1965 5.341 0
rclavicle -2.43124e-15 -1.80124e-15 0
rhumerus -43.6806 11.7497 -88.1663
rradius 47.3821 0 0
rwrist -23.3418 0 0
rhand -31.2437 -34.0971 0
rfingers 7.12502 0 0
rthumb -4.51845 -64.0278 0
